# xmcd
#
# Track frame offsets:
#       150
#       16455
#       30450
#       41637
#       60650
#       70800
#
# Disc length: 1186 seconds
#
# Revision: 1
# Processed by: cddbd v1.5.2PL0 Copyright (c) Steve Scherf et al.
# Submitted via: FreeDbEdit v0.1
#
DISCID=4804a006
DTITLE=George Strait - Wrangler Strait Classic
DYEAR=2002
DGENRE=Country
TTITLE0=Write This Down
TTITLE1=Love Without End, Amen
TTITLE2=I Can't See Texas From Here
TTITLE3=I Can Still Make Cheyenne
TTITLE4=Rhythm of the Road
TTITLE5=One Step at a Time
EXTD=
EXTT0=
EXTT1=
EXTT2=
EXTT3=
EXTT4=
EXTT5=
PLAYORDER=
